<svg width="60" height="32" viewBox="0 0 60 32" fill="none" xmlns="http://www.w3.org/2000/svg">
<g clip-path="url(#clip0_179570_2794)">
<path d="M38.0347 29.4286H21.9632C21.6686 29.4286 21.4275 29.5571 21.4275 29.7143V30.8571C21.4275 31.4893 22.3851 32 23.5704 32H36.4275C37.6128 32 38.5704 31.4893 38.5704 30.8571V29.7143C38.5704 29.5571 38.3293 29.4286 38.0347 29.4286ZM29.999 0C17.8717 0 8.03467 5.24643 8.03467 11.7143C8.03467 16.05 12.4543 19.8357 19.0168 21.8607V26C19.0168 26.6321 19.9744 27.1429 21.1597 27.1429H38.8382C40.0235 27.1429 40.9811 26.6321 40.9811 26V21.8607C47.5436 19.8357 51.9632 16.05 51.9632 11.7143C51.9632 5.24643 42.1262 0 29.999 0ZM38.5637 19.6357L36.1597 20.3786V24.5714H23.8382V20.3786L21.4342 19.6357C16.1641 18.0107 12.8561 15.0179 12.8561 11.7143C12.8561 6.66429 20.5302 2.57143 29.999 2.57143C39.4677 2.57143 47.1418 6.66429 47.1418 11.7143C47.1418 15.0179 43.8338 18.0107 38.5637 19.6357Z" fill="black" fill-opacity="0.85"/>
</g>
<defs>
<clipPath id="clip0_179570_2794">
<rect width="60" height="32" fill="white"/>
</clipPath>
</defs>
</svg>
