<svg width="14" height="14" viewBox="0 0 14 14" fill="none" xmlns="http://www.w3.org/2000/svg">
<path d="M1.75012 6.98633C1.75012 7.10123 1.77275 7.21502 1.81673 7.32118C1.8607 7.42734 1.92515 7.5238 2.0064 7.60505C2.08765 7.6863 2.18411 7.75075 2.29027 7.79472C2.39643 7.8387 2.51022 7.86133 2.62512 7.86133C2.74003 7.86133 2.85381 7.8387 2.95997 7.79472C3.06613 7.75075 3.16259 7.6863 3.24384 7.60505C3.32509 7.5238 3.38954 7.42734 3.43352 7.32118C3.47749 7.21502 3.50012 7.10123 3.50012 6.98633C3.50012 6.87142 3.47749 6.75764 3.43352 6.65148C3.38954 6.54532 3.32509 6.44886 3.24384 6.36761C3.16259 6.28636 3.06613 6.22191 2.95997 6.17793C2.85381 6.13396 2.74003 6.11133 2.62512 6.11133C2.51022 6.11133 2.39643 6.13396 2.29027 6.17793C2.18411 6.22191 2.08765 6.28636 2.0064 6.36761C1.92515 6.44886 1.8607 6.54532 1.81673 6.65148C1.77275 6.75764 1.75012 6.87142 1.75012 6.98633V6.98633ZM6.12512 6.98633C6.12512 7.21839 6.21731 7.44095 6.3814 7.60505C6.5455 7.76914 6.76806 7.86133 7.00012 7.86133C7.23219 7.86133 7.45475 7.76914 7.61884 7.60505C7.78294 7.44095 7.87512 7.21839 7.87512 6.98633C7.87512 6.75426 7.78294 6.5317 7.61884 6.36761C7.45475 6.20352 7.23219 6.11133 7.00012 6.11133C6.76806 6.11133 6.5455 6.20352 6.3814 6.36761C6.21731 6.5317 6.12512 6.75426 6.12512 6.98633V6.98633ZM10.5001 6.98633C10.5001 7.21839 10.5923 7.44095 10.7564 7.60505C10.9205 7.76914 11.1431 7.86133 11.3751 7.86133C11.6072 7.86133 11.8297 7.76914 11.9938 7.60505C12.1579 7.44095 12.2501 7.21839 12.2501 6.98633C12.2501 6.75426 12.1579 6.5317 11.9938 6.36761C11.8297 6.20352 11.6072 6.11133 11.3751 6.11133C11.1431 6.11133 10.9205 6.20352 10.7564 6.36761C10.5923 6.5317 10.5001 6.75426 10.5001 6.98633V6.98633Z" fill="#1890FF"/>
</svg>
