<svg width="14" height="14" viewBox="0 0 14 14" fill="none" xmlns="http://www.w3.org/2000/svg">
<path d="M7.80926 6.99951L11.9108 2.11045C11.9796 2.0292 11.9218 1.90576 11.8155 1.90576H10.5686C10.4952 1.90576 10.4249 1.93857 10.3764 1.99482L6.99363 6.02764L3.61082 1.99482C3.56394 1.93857 3.49363 1.90576 3.41863 1.90576H2.17176C2.06551 1.90576 2.00769 2.0292 2.07644 2.11045L6.17801 6.99951L2.07644 11.8886C2.06104 11.9067 2.05116 11.9288 2.04798 11.9524C2.04479 11.976 2.04843 11.9999 2.05846 12.0215C2.0685 12.043 2.08451 12.0613 2.10459 12.074C2.12467 12.0867 2.14798 12.0934 2.17176 12.0933H3.41863C3.49207 12.0933 3.56238 12.0605 3.61082 12.0042L6.99363 7.97139L10.3764 12.0042C10.4233 12.0605 10.4936 12.0933 10.5686 12.0933H11.8155C11.9218 12.0933 11.9796 11.9698 11.9108 11.8886L7.80926 6.99951Z" fill="black" fill-opacity="0.45"/>
</svg>
