<svg width="12" height="12" viewBox="0 0 12 12" fill="none" xmlns="http://www.w3.org/2000/svg">
<g clip-path="url(#clip0_179570_2572)">
<path d="M11.0078 5.71321C11.056 5.55249 11.0801 5.38642 11.0801 5.21767C11.0801 4.83865 10.9556 4.47437 10.7306 4.17705C10.7788 4.01633 10.8029 3.85026 10.8029 3.68151C10.8029 3.30249 10.6783 2.93821 10.4533 2.64089C10.5015 2.48017 10.5257 2.3141 10.5257 2.14535C10.5257 1.45428 10.1145 0.831512 9.477 0.559637C9.36494 0.511327 9.24411 0.486705 9.12208 0.487316H1.07164C0.834584 0.487316 0.643066 0.678834 0.643066 0.915887V5.79089C0.643066 6.02794 0.834584 6.21946 1.07164 6.21946H2.80333L3.95244 10.382C4.13726 11.0529 4.75333 11.5217 5.44976 11.5217C5.84753 11.5217 6.21851 11.3637 6.49307 11.0744C6.76762 10.7864 6.90825 10.4087 6.88816 10.011L6.8078 8.36499H10.0207C10.1828 8.36499 10.3408 8.32214 10.4801 8.24044C11.0212 7.92571 11.3574 7.35517 11.3574 6.75383C11.3574 6.37482 11.2328 6.01053 11.0078 5.71321ZM1.60735 5.25383V1.45026H2.69217V5.25383H1.60735ZM10.0074 7.40205H5.79664L5.92521 10.0592C5.93325 10.2186 5.86226 10.3686 5.72967 10.4677C5.64798 10.5279 5.54753 10.5587 5.44708 10.5574C5.31876 10.5562 5.19429 10.5133 5.09239 10.4353C4.99048 10.3573 4.91662 10.2484 4.88191 10.1248L3.54932 5.29669V1.45026H9.11271C9.24658 1.51026 9.36027 1.60765 9.4401 1.73072C9.51993 1.8538 9.56251 1.99731 9.56271 2.14401C9.56271 2.27392 9.53191 2.39714 9.4703 2.50964L9.28414 2.84982L9.57744 3.10428C9.66 3.17578 9.72618 3.26423 9.77147 3.36361C9.81677 3.46299 9.84013 3.57096 9.83994 3.68017C9.83994 3.81008 9.80914 3.9333 9.74753 4.0458L9.56137 4.38598L9.85467 4.64044C9.93723 4.71194 10.0034 4.80039 10.0487 4.89977C10.094 4.99915 10.1174 5.10712 10.1172 5.21633C10.1172 5.34624 10.0864 5.46946 10.0248 5.58196L9.83726 5.92348L10.1306 6.17794C10.2131 6.24944 10.2793 6.33789 10.3246 6.43727C10.3699 6.53665 10.3933 6.64462 10.3931 6.75383C10.3931 7.00964 10.2457 7.25607 10.0074 7.40205Z" fill="black" fill-opacity="0.45"/>
</g>
<defs>
<clipPath id="clip0_179570_2572">
<rect width="12" height="12" fill="white" transform="translate(0 0.000976562)"/>
</clipPath>
</defs>
</svg>
