<svg width="33" height="32" viewBox="0 0 33 32" fill="none" xmlns="http://www.w3.org/2000/svg">
<g clip-path="url(#clip0_179570_2797)">
<path d="M15.4547 0.668017L1.46942 14.6418C0.717549 15.3931 0.717549 16.6065 1.46942 17.3577L15.4547 31.3315C16.2066 32.0828 17.421 32.0828 18.1729 31.3315L24.0367 25.4725C24.7101 24.7997 24.7101 23.7089 24.0367 23.0361C23.3633 22.3633 22.2716 22.3633 21.5983 23.0361L17.1529 27.4777C16.9658 27.6647 16.6818 27.6647 16.4946 27.4777L5.32637 16.3187C5.13923 16.1317 5.13923 15.8479 5.32637 15.6609L16.4946 4.50183C16.6818 4.31485 16.9658 4.31485 17.1529 4.50183L21.5983 8.94351C22.2716 9.61631 23.3633 9.61631 24.0367 8.94351C24.7101 8.2707 24.7101 7.17987 24.0367 6.50707L18.1735 0.648692C17.4186 -0.0863052 16.2037 -0.0803549 15.4547 0.668017Z" fill="url(#paint0_linear_179570_2797)"/>
<path d="M15.4547 0.668017L1.46942 14.6418C0.717549 15.3931 0.717549 16.6065 1.46942 17.3577L15.4547 31.3315C16.2066 32.0828 17.421 32.0828 18.1729 31.3315L24.0367 25.4725C24.7101 24.7997 24.7101 23.7089 24.0367 23.0361C23.3633 22.3633 22.2716 22.3633 21.5983 23.0361L17.1529 27.4777C16.9658 27.6647 16.6818 27.6647 16.4946 27.4777L5.32637 16.3187C5.13923 16.1317 5.13923 15.8479 5.32637 15.6609L16.4946 4.50183C16.9606 4.10012 17.7209 3.28646 18.8374 3.09616C19.6671 2.95474 20.5743 3.26602 21.5588 4.03C20.9006 3.37232 19.7721 2.24522 18.1735 0.648692C17.4186 -0.0863052 16.2037 -0.0803549 15.4547 0.668017Z" fill="url(#paint1_linear_179570_2797)"/>
<path d="M25.3902 21.7363C26.0635 22.4091 27.1553 22.4091 27.8286 21.7363L32.1541 17.4144C32.906 16.6631 32.906 15.4497 32.1542 14.6986L27.791 10.3544C27.1161 9.68244 26.024 9.68341 25.3502 10.3566C24.6769 11.0294 24.6769 12.1202 25.3502 12.793L28.2971 15.7375C28.4843 15.9245 28.4843 16.2083 28.2971 16.3953L25.3902 19.2998C24.7168 19.9726 24.7168 21.0635 25.3902 21.7363Z" fill="url(#paint2_linear_179570_2797)"/>
<path d="M16.8837 19.8427C18.9691 19.8427 20.6597 18.1535 20.6597 16.0698C20.6597 13.9861 18.9691 12.2969 16.8837 12.2969C14.7983 12.2969 13.1077 13.9861 13.1077 16.0698C13.1077 18.1535 14.7983 19.8427 16.8837 19.8427Z" fill="url(#paint3_linear_179570_2797)"/>
</g>
<defs>
<linearGradient id="paint0_linear_179570_2797" x1="15.5842" y1="0.102052" x2="28.8743" y2="8.21811" gradientUnits="userSpaceOnUse">
<stop stop-color="#4285EB"/>
<stop offset="1" stop-color="#2EC7FF"/>
</linearGradient>
<linearGradient id="paint1_linear_179570_2797" x1="17.3667" y1="0.102051" x2="10.8027" y2="34.027" gradientUnits="userSpaceOnUse">
<stop stop-color="#29CDFF"/>
<stop offset="0.378601" stop-color="#148EFF"/>
<stop offset="1" stop-color="#0A60FF"/>
</linearGradient>
<linearGradient id="paint2_linear_179570_2797" x1="30.3318" y1="8.24358" x2="21.7909" y2="21.6008" gradientUnits="userSpaceOnUse">
<stop stop-color="#FA816E"/>
<stop offset="0.414726" stop-color="#F74A5C"/>
<stop offset="1" stop-color="#F51D2C"/>
</linearGradient>
<linearGradient id="paint3_linear_179570_2797" x1="18.2527" y1="9.60372" x2="15.4109" y2="20.9714" gradientUnits="userSpaceOnUse">
<stop stop-color="#FA8E7D"/>
<stop offset="0.512635" stop-color="#F74A5C"/>
<stop offset="1" stop-color="#F51D2C"/>
</linearGradient>
<clipPath id="clip0_179570_2797">
<rect width="32" height="32" fill="white" transform="translate(0.800537)"/>
</clipPath>
</defs>
</svg>
