<svg width="40" height="36" viewBox="0 0 40 36" fill="none" xmlns="http://www.w3.org/2000/svg">
<path d="M15.9179 15.1888H36.8594C37.0514 15.1888 37.2085 15.0441 37.2085 14.8673V12.6173C37.2085 12.4405 37.0514 12.2959 36.8594 12.2959H15.9179C15.7259 12.2959 15.5688 12.4405 15.5688 12.6173V14.8673C15.5688 15.0441 15.7259 15.1888 15.9179 15.1888ZM15.5688 23.3852C15.5688 23.562 15.7259 23.7066 15.9179 23.7066H36.8594C37.0514 23.7066 37.2085 23.562 37.2085 23.3852V21.1352C37.2085 20.9584 37.0514 20.8138 36.8594 20.8138H15.9179C15.7259 20.8138 15.5688 20.9584 15.5688 21.1352V23.3852ZM37.5575 3.8584H3.35293C3.16097 3.8584 3.00391 4.00304 3.00391 4.17983V6.42983C3.00391 6.60661 3.16097 6.75126 3.35293 6.75126H37.5575C37.7494 6.75126 37.9065 6.60661 37.9065 6.42983V4.17983C37.9065 4.00304 37.7494 3.8584 37.5575 3.8584ZM37.5575 29.2513H3.35293C3.16097 29.2513 3.00391 29.3959 3.00391 29.5727V31.8227C3.00391 31.9995 3.16097 32.1441 3.35293 32.1441H37.5575C37.7494 32.1441 37.9065 31.9995 37.9065 31.8227V29.5727C37.9065 29.3959 37.7494 29.2513 37.5575 29.2513ZM4.3302 23.2285L11.1493 18.2825C11.1952 18.2493 11.2323 18.2069 11.2579 18.1585C11.2834 18.1101 11.2966 18.057 11.2966 18.0033C11.2966 17.9495 11.2834 17.8964 11.2579 17.848C11.2323 17.7997 11.1952 17.7573 11.1493 17.724L4.3302 12.774C4.07716 12.5892 3.70196 12.7539 3.70196 13.0513V22.9472C3.70193 23.0143 3.72242 23.0801 3.76106 23.137C3.79971 23.1939 3.85496 23.2396 3.92049 23.269C3.98603 23.2983 4.0592 23.3101 4.13166 23.3029C4.20411 23.2957 4.27292 23.27 4.3302 23.2285Z" fill="black" fill-opacity="0.85"/>
</svg>
